Coordinates
version=1
nRows=10
nColumns=33
inDegrees=yes

Units are S.I. units (second, meters, Newtons, ...)
Angles are in degrees.

endheader
time	ground_thorax_rot_x	ground_thorax_rot_y	ground_thorax_rot_z	ground_thorax_tx	ground_thorax_ty	ground_thorax_tz	clav_prot_r	clav_elev_r	scapula_abduction_r	scapula_elevation_r	scapula_upward_rot_r	scapula_winging_r	shoulder_elv_r	plane_of_elev_r	axial_rot_r	elbow_flexion_r	pro_sup_r	wrist_flex_r	wrist_dev_r	clav_prot_l	clav_elev_l	scapula_abduction_l	scapula_elevation_l	scapula_upward_rot_l	scapula_winging_l	shoulder_elv_l	plane_of_elev_l	axial_rot_l	elbow_flexion_l	pro_sup_l	wrist_flex_l	wrist_dev_l
      4.99000000	     37.95242897	     11.69532019	     13.21094900	    -97.31017194	    769.83535820	      8.20799413	     12.89980040	     39.75183375	     45.00000000	     38.50737849	    -13.45133765	  -1172.11148443	  -2821.84553961	     28.94403224	     58.20514608	    729.31908868	     19.66616501	     17.34376976	     12.25435812	      5.90868779	    -45.00000000	    -41.17577016	     45.00000000	    -39.76604776	   -635.21773919	  -3695.92794741	    133.95074078	   -179.99999979	    729.32011696	     51.53235568	      5.32227234	    -21.59029086
      5.00000000	     38.11437801	     11.28923367	     12.87907639	    -98.26353793	    770.82455976	      7.88201613	     12.79379446	     39.98789833	     45.00000000	     38.48777298	    -12.95149786	  -1172.08197328	  -2821.60195377	     28.92126270	     58.09097128	    729.38801835	     19.63909572	     17.44283478	     12.27811643	      5.94806806	    -45.00000000	    -41.37035657	     45.00000000	    -38.59710876	   -634.87352224	  -3695.98530772	    133.93226660	   -179.99999979	    729.44859789	     50.67460927	      6.35802963	    -21.83417751
      5.01000000	     38.19071065	     11.11416029	     12.63267009	    -99.50647141	    771.75568926	      7.62151348	     12.60045276	     39.70238621	     45.00000000	     38.41848539	    -12.54435714	  -1172.44468703	  -2821.54928085	     29.04490244	     58.08838784	    729.43050186	     19.63597900	     17.42091797	     12.19404041	      5.84373354	    -45.00000000	    -41.77800805	     45.00000000	    -37.92951231	   -634.60707935	  -3695.94562179	    134.02453379	   -179.99999979	    729.51287045	     49.07514387	      6.35225321	    -21.72162352
      5.02000000	     38.40691926	     10.98387787	     12.39886146	   -100.98027842	    772.65512517	      7.40774313	     12.43036226	     40.04492798	     45.00000000	     38.72505354	    -12.35294405	  -1172.36337599	  -2821.52207980	     28.86762979	     58.15693336	    729.51522758	     19.64486582	     17.53073325	     12.18722847	      5.97270494	    -45.00000000	    -41.70678671	     45.00000000	    -37.53095684	   -634.46139485	  -3695.94181112	    133.92636323	   -179.99999979	    729.48548763	     47.33287165	      7.09403341	    -21.82089294
      5.03000000	     38.60009075	     11.06841873	     12.52637202	   -102.62882470	    773.54766601	      7.22457685	     12.48221922	     40.01383884	     45.00000000	     39.08624409	    -12.54938441	  -1172.45217533	  -2821.60293114	     28.85954287	     58.06227235	    729.60774122	     19.62714769	     17.53181172	     12.10853328	      6.05694598	    -45.00000000	    -41.72543815	     45.00000000	    -37.61150803	   -634.28050896	  -3696.08460517	    134.09710546	   -179.99999979	    729.52673682	     45.16333714	      7.18898316	    -21.66938177
      5.04000000	     38.77253444	     11.02432152	     12.44304003	   -104.39104192	    774.45529992	      7.05666694	     12.53429750	     40.16084916	     45.00000000	     39.29547932	    -12.57467056	  -1172.52236408	  -2821.53535520	     28.91603902	     57.82537816	    729.67767256	     19.59225064	     17.58696050	     12.05940748	      5.93741078	    -45.00000000	    -41.50576765	     45.00000000	    -37.91991766	   -634.20482647	  -3695.84608403	    134.00753453	   -179.99999979	    729.57105510	     43.49055051	      7.49067382	    -21.67346668
      5.05000000	     38.92606996	     11.07089902	     12.45659935	   -106.21253112	    775.40227325	      6.88811891	     12.60256752	     40.30627661	     45.00000000	     39.50908411	    -12.86056006	  -1172.55271257	  -2821.41665396	     29.01445955	     57.66681613	    729.74772257	     19.57418928	     17.61801010	     11.98537874	      5.93309689	    -45.00000000	    -41.34186133	     45.00000000	    -38.18970241	   -634.10099345	  -3695.70018314	    133.97364117	   -179.99999979	    729.58654998	     41.99719154	      7.70204449	    -21.62128585
      5.06000000	     39.11820897	     11.15139153	     12.58892889	   -108.13624059	    776.36623107	      6.73096951	     12.70005053	     40.49826209	     45.00000000	     39.81817524	    -13.21402444	  -1172.50942528	  -2821.35851387	     29.05356246	     57.42410600	    729.83821665	     19.55066111	     17.65763678	     11.92429490	      5.94653074	    -45.00000000	    -41.10683336	     45.00000000	    -38.66003116	   -634.02496206	  -3695.63538877	    134.02303969	   -179.99999979	    729.61283875	     40.67030276	      7.83805013	    -21.57486734
      5.07000000	     39.33283556	     11.73083412	     13.39722026	   -110.13956570	    777.35185424	      6.57930703	     13.48406473	     41.46554098	     45.00000000	     40.48905987	    -15.43621499	  -1172.12842467	  -2821.17092735	     29.47318810	     56.70296400	    729.96360147	     19.45683803	     17.65718434	     11.74808769	      6.46740177	    -45.00000000	    -40.35769650	     45.00000000	    -40.35691405	   -634.25476895	  -3695.35276608	    134.13313319	   -179.99999979	    729.52768581	     38.64147010	      8.09366293	    -21.40526567
      5.08000000	     39.45807928	     11.62171756	     13.23524003	   -112.21501195	    778.35872325	      6.43170599	     13.35161771	     41.39877769	     45.00000000	     40.59685910	    -15.35129785	  -1172.19457094	  -2821.00840229	     29.50311758	     56.30836891	    730.04557884	     19.44847095	     17.70302545	     11.74162224	      6.14399975	    -45.00000000	    -40.18849860	     45.00000000	    -40.44660286	   -634.07253332	  -3695.18068707	    134.05542817	   -179.99999979	    729.58937795	     37.82845632	      8.11753212	    -21.40557386
